<svg xmlns="http://www.w3.org/2000/svg" xmlns:xlink="http://www.w3.org/1999/xlink" width="1090" height="581.04"><rect width="1090" height="581.04" rx="5" ry="5" class="a"/><svg y="0%" x="0%"><circle cx="20" cy="20" r="6" fill="#ff5f58"/><circle cx="40" cy="20" r="6" fill="#ffbd2e"/><circle cx="60" cy="20" r="6" fill="#18c132"/></svg><svg height="521.04" viewBox="0 0 105 52.104" width="1050" x="15" xmlns="http://www.w3.org/2000/svg" xmlns:xlink="http://www.w3.org/1999/xlink" y="50"><style>@keyframes k{0%{transform:translateX(0)}1.04%{transform:translateX(-210px)}9.24%{transform:translateX(-315px)}9.69%{transform:translateX(-420px)}10.79%{transform:translateX(-525px)}13.14%{transform:translateX(-630px)}16.74%{transform:translateX(-735px)}18.43%{transform:translateX(-840px)}18.65%{transform:translateX(-945px)}19.5%{transform:translateX(-1050px)}20.43%{transform:translateX(-1155px)}21.76%{transform:translateX(-1260px)}21.77%{transform:translateX(-1365px)}21.79%{transform:translateX(-1575px)}29.33%{transform:translateX(-1680px)}31.8%{transform:translateX(-1785px)}32.77%{transform:translateX(-1890px)}35.34%{transform:translateX(-2100px)}35.37%{transform:translateX(-2310px)}49.08%{transform:translateX(-2415px)}49.48%{transform:translateX(-2520px)}53.24%{transform:translateX(-2625px)}54.47%{transform:translateX(-2730px)}55.35%{transform:translateX(-2835px)}56.25%{transform:translateX(-2940px)}56.74%{transform:translateX(-3045px)}58.66%{transform:translateX(-3150px)}60.28%{transform:translateX(-3255px)}61.15%{transform:translateX(-3360px)}61.53%{transform:translateX(-3465px)}63.03%{transform:translateX(-3570px)}63.83%{transform:translateX(-3675px)}64.41%{transform:translateX(-3780px)}65.77%{transform:translateX(-3885px)}66.7%{transform:translateX(-3990px)}68.38%{transform:translateX(-4095px)}74.94%{transform:translateX(-4200px)}76.64%{transform:translateX(-4305px)}76.87%{transform:translateX(-4410px)}77.78%{transform:translateX(-4515px)}79%{transform:translateX(-4620px)}79.87%{transform:translateX(-4725px)}81.95%{transform:translateX(-4830px)}83.66%{transform:translateX(-4935px)}83.94%{transform:translateX(-5040px)}85.08%{transform:translateX(-5145px)}86.92%{transform:translateX(-5250px)}90.71%{transform:translateX(-5355px)}90.91%{transform:translateX(-5460px)}90.92%{transform:translateX(-5565px)}90.93%{transform:translateX(-5670px)}to{transform:translateX(-5775px)}}.a{fill:#282d35}.f,.g,.h{white-space:pre}.f{fill:#a8cc8c;font-weight:700}.g,.h{fill:#b9c0cb}.h{fill:#71bef2;font-weight:700}</style><g font-family="Monaco,Consolas,Menlo,'Bitstream Vera Sans Mono','Powerline Symbols',monospace" font-size="1.67"><defs><symbol id="1"><text y="1.67" class="f">amalker</text><text x="7.014" y="1.67" class="g">:</text><text x="8.016" y="1.67" class="h">json_test</text><text x="17.034" y="1.67" class="g">$</text></symbol><symbol id="2"><text y="1.67" class="f">amalker</text><text x="7.014" y="1.67" class="g">:</text><text x="8.016" y="1.67" class="h">json_test</text><text x="17.034" y="1.67" class="g">$</text><text x="19.038" y="1.67" class="g">cat</text></symbol><symbol id="3"><text y="1.67" class="f">amalker</text><text x="7.014" y="1.67" class="g">:</text><text x="8.016" y="1.67" class="h">json_test</text><text x="17.034" y="1.67" class="g">$</text><text x="19.038" y="1.67" class="g">cat</text><text x="23.046" y="1.67" class="g">json</text></symbol><symbol id="4"><text y="1.67" class="f">amalker</text><text x="7.014" y="1.67" class="g">:</text><text x="8.016" y="1.67" class="h">json_test</text><text x="17.034" y="1.67" class="g">$</text><text x="19.038" y="1.67" class="g">cat</text><text x="23.046" y="1.67" class="g">json1</text></symbol><symbol id="5"><text y="1.67" class="g">{</text></symbol><symbol id="6"><text x="2.004" y="1.67" class="g">&quot;host&quot;:</text><text x="10.02" y="1.67" class="g">&quot;hexlet.io&quot;,</text></symbol><symbol id="7"><text x="2.004" y="1.67" class="g">&quot;timeout&quot;:</text><text x="13.026" y="1.67" class="g">50,</text></symbol><symbol id="8"><text x="2.004" y="1.67" class="g">&quot;proxy&quot;:</text><text x="11.022" y="1.67" class="g">&quot;123.234.53.22&quot;,</text></symbol><symbol id="9"><text x="2.004" y="1.67" class="g">&quot;follow&quot;:</text><text x="12.024" y="1.67" class="g">false</text></symbol><symbol id="10"><text y="1.67" class="g">}</text></symbol><symbol id="11"><text y="1.67" class="f">amalker</text><text x="7.014" y="1.67" class="g">:</text><text x="8.016" y="1.67" class="h">json_test</text><text x="17.034" y="1.67" class="g">$</text><text x="19.038" y="1.67" class="g">cat</text><text x="23.046" y="1.67" class="g">json2</text></symbol><symbol id="12"><text x="2.004" y="1.67" class="g">&quot;timeout&quot;:</text><text x="13.026" y="1.67" class="g">20,</text></symbol><symbol id="13"><text x="2.004" y="1.67" class="g">&quot;verbose&quot;:</text><text x="13.026" y="1.67" class="g">true,</text></symbol><symbol id="14"><text x="2.004" y="1.67" class="g">&quot;host&quot;:</text><text x="10.02" y="1.67" class="g">&quot;hexlet.io&quot;</text></symbol><symbol id="15"><text y="1.67" class="f">amalker</text><text x="7.014" y="1.67" class="g">:</text><text x="8.016" y="1.67" class="h">json_test</text><text x="17.034" y="1.67" class="g">$</text><text x="19.038" y="1.67" class="g">gendiff</text></symbol><symbol id="16"><text y="1.67" class="f">amalker</text><text x="7.014" y="1.67" class="g">:</text><text x="8.016" y="1.67" class="h">json_test</text><text x="17.034" y="1.67" class="g">$</text><text x="19.038" y="1.67" class="g">gendiff</text><text x="27.054" y="1.67" class="g">-f</text></symbol><symbol id="17"><text y="1.67" class="f">amalker</text><text x="7.014" y="1.67" class="g">:</text><text x="8.016" y="1.67" class="h">json_test</text><text x="17.034" y="1.67" class="g">$</text><text x="19.038" y="1.67" class="g">gendiff</text><text x="27.054" y="1.67" class="g">-f</text><text x="30.06" y="1.67" class="g">plain</text></symbol><symbol id="18"><text y="1.67" class="f">amalker</text><text x="7.014" y="1.67" class="g">:</text><text x="8.016" y="1.67" class="h">json_test</text><text x="17.034" y="1.67" class="g">$</text><text x="19.038" y="1.67" class="g">gendiff</text><text x="27.054" y="1.67" class="g">-f</text><text x="30.06" y="1.67" class="g">plain</text><text x="36.072" y="1.67" class="g">json1</text></symbol><symbol id="19"><text y="1.67" class="f">amalker</text><text x="7.014" y="1.67" class="g">:</text><text x="8.016" y="1.67" class="h">json_test</text><text x="17.034" y="1.67" class="g">$</text><text x="19.038" y="1.67" class="g">gendiff</text><text x="27.054" y="1.67" class="g">-f</text><text x="30.06" y="1.67" class="g">plain</text><text x="36.072" y="1.67" class="g">json1</text><text x="42.084" y="1.67" class="g">json2</text></symbol><symbol id="20"><text x="4.008" y="1.67" class="g">host:</text><text x="10.02" y="1.67" class="g">hexlet.io</text></symbol><symbol id="21"><text x="2.004" y="1.67" class="g">+</text><text x="4.008" y="1.67" class="g">timeout:</text><text x="13.026" y="1.67" class="g">20</text></symbol><symbol id="22"><text x="2.004" y="1.67" class="g">-</text><text x="4.008" y="1.67" class="g">timeout:</text><text x="13.026" y="1.67" class="g">50</text></symbol><symbol id="23"><text x="2.004" y="1.67" class="g">-</text><text x="4.008" y="1.67" class="g">proxy:</text><text x="11.022" y="1.67" class="g">123.234.53.22</text></symbol><symbol id="24"><text x="2.004" y="1.67" class="g">-</text><text x="4.008" y="1.67" class="g">follow:</text><text x="12.024" y="1.67" class="g">false</text></symbol><symbol id="25"><text x="2.004" y="1.67" class="g">+</text><text x="4.008" y="1.67" class="g">verbose:</text><text x="13.026" y="1.67" class="g">true</text></symbol><symbol id="a"><path fill="transparent" d="M0 0h105v24H0z"/></symbol><symbol id="b"><path fill="#6f7683" d="M0 0h1.102v2.171H0z"/></symbol></defs><path class="a" d="M0 0h105v52.104H0z"/><g style="animation-duration:32.068086s;animation-iteration-count:infinite;animation-name:k;animation-timing-function:steps(1,end)"><svg width="5880"><svg><use xlink:href="#a"/><use xlink:href="#b" x="-.004"/></svg><svg x="105"><use xlink:href="#a"/><use xlink:href="#b" x="-.004"/></svg><svg x="210"><use xlink:href="#a"/><use xlink:href="#b" x="18.996"/><use xlink:href="#1"/></svg><svg x="315"><use xlink:href="#a"/><use xlink:href="#b" x="19.996"/><text y="1.67" class="f">amalker</text><text x="7.014" y="1.67" class="g">:</text><text x="8.016" y="1.67" class="h">json_test</text><text x="17.034" y="1.67" class="g">$</text><text x="19.038" y="1.67" class="g">c</text></svg><svg x="420"><use xlink:href="#a"/><use xlink:href="#b" x="20.996"/><text y="1.67" class="f">amalker</text><text x="7.014" y="1.67" class="g">:</text><text x="8.016" y="1.67" class="h">json_test</text><text x="17.034" y="1.67" class="g">$</text><text x="19.038" y="1.67" class="g">ca</text></svg><svg x="525"><use xlink:href="#a"/><use xlink:href="#b" x="21.996"/><use xlink:href="#2"/></svg><svg x="630"><use xlink:href="#a"/><use xlink:href="#b" x="22.996"/><use xlink:href="#2"/></svg><svg x="735"><use xlink:href="#a"/><use xlink:href="#b" x="23.996"/><text y="1.67" class="f">amalker</text><text x="7.014" y="1.67" class="g">:</text><text x="8.016" y="1.67" class="h">json_test</text><text x="17.034" y="1.67" class="g">$</text><text x="19.038" y="1.67" class="g">cat</text><text x="23.046" y="1.67" class="g">j</text></svg><svg x="840"><use xlink:href="#a"/><use xlink:href="#b" x="24.996"/><text y="1.67" class="f">amalker</text><text x="7.014" y="1.67" class="g">:</text><text x="8.016" y="1.67" class="h">json_test</text><text x="17.034" y="1.67" class="g">$</text><text x="19.038" y="1.67" class="g">cat</text><text x="23.046" y="1.67" class="g">js</text></svg><svg x="945"><use xlink:href="#a"/><use xlink:href="#b" x="25.996"/><text y="1.67" class="f">amalker</text><text x="7.014" y="1.67" class="g">:</text><text x="8.016" y="1.67" class="h">json_test</text><text x="17.034" y="1.67" class="g">$</text><text x="19.038" y="1.67" class="g">cat</text><text x="23.046" y="1.67" class="g">jso</text></svg><svg x="1050"><use xlink:href="#a"/><use xlink:href="#b" x="26.996"/><use xlink:href="#3"/></svg><svg x="1155"><use xlink:href="#a"/><use xlink:href="#b" x="27.996"/><use xlink:href="#4"/></svg><svg x="1260"><use xlink:href="#a"/><use xlink:href="#b" x="-.004" y="2.146"/><use xlink:href="#4"/></svg><svg x="1365"><use xlink:href="#a"/><use xlink:href="#b" x="-.004" y="15.172"/><use xlink:href="#4"/><use xlink:href="#5" y="2.171"/><use xlink:href="#6" y="4.342"/><use xlink:href="#7" y="6.513"/><use xlink:href="#8" y="8.684"/><use xlink:href="#9" y="10.855"/><use xlink:href="#10" y="13.026"/></svg><svg x="1470"><use xlink:href="#a"/><use xlink:href="#b" x="-.004" y="15.172"/><use xlink:href="#4"/><use xlink:href="#5" y="2.171"/><use xlink:href="#6" y="4.342"/><use xlink:href="#7" y="6.513"/><use xlink:href="#8" y="8.684"/><use xlink:href="#9" y="10.855"/><use xlink:href="#10" y="13.026"/></svg><svg x="1575"><use xlink:href="#a"/><use xlink:href="#b" x="18.996" y="15.172"/><use xlink:href="#4"/><use xlink:href="#5" y="2.171"/><use xlink:href="#6" y="4.342"/><use xlink:href="#7" y="6.513"/><use xlink:href="#8" y="8.684"/><use xlink:href="#9" y="10.855"/><use xlink:href="#10" y="13.026"/><use xlink:href="#1" y="15.197"/></svg><svg x="1680"><use xlink:href="#a"/><use xlink:href="#b" x="27.996" y="15.172"/><use xlink:href="#4"/><use xlink:href="#5" y="2.171"/><use xlink:href="#6" y="4.342"/><use xlink:href="#7" y="6.513"/><use xlink:href="#8" y="8.684"/><use xlink:href="#9" y="10.855"/><use xlink:href="#10" y="13.026"/><use xlink:href="#4" y="15.197"/></svg><svg x="1785"><use xlink:href="#a"/><use xlink:href="#b" x="26.996" y="15.172"/><use xlink:href="#4"/><use xlink:href="#5" y="2.171"/><use xlink:href="#6" y="4.342"/><use xlink:href="#7" y="6.513"/><use xlink:href="#8" y="8.684"/><use xlink:href="#9" y="10.855"/><use xlink:href="#10" y="13.026"/><use xlink:href="#3" y="15.197"/></svg><svg x="1890"><use xlink:href="#a"/><use xlink:href="#b" x="27.996" y="15.172"/><use xlink:href="#4"/><use xlink:href="#5" y="2.171"/><use xlink:href="#6" y="4.342"/><use xlink:href="#7" y="6.513"/><use xlink:href="#8" y="8.684"/><use xlink:href="#9" y="10.855"/><use xlink:href="#10" y="13.026"/><use xlink:href="#11" y="15.197"/></svg><svg x="1995"><use xlink:href="#a"/><use xlink:href="#b" x="-.004" y="17.343"/><use xlink:href="#4"/><use xlink:href="#5" y="2.171"/><use xlink:href="#6" y="4.342"/><use xlink:href="#7" y="6.513"/><use xlink:href="#8" y="8.684"/><use xlink:href="#9" y="10.855"/><use xlink:href="#10" y="13.026"/><use xlink:href="#11" y="15.197"/></svg><svg x="2100"><use xlink:href="#a"/><use xlink:href="#b" x="-.004" y="28.198"/><use xlink:href="#4"/><use xlink:href="#5" y="2.171"/><use xlink:href="#6" y="4.342"/><use xlink:href="#7" y="6.513"/><use xlink:href="#8" y="8.684"/><use xlink:href="#9" y="10.855"/><use xlink:href="#10" y="13.026"/><use xlink:href="#11" y="15.197"/><use xlink:href="#5" y="17.368"/><use xlink:href="#12" y="19.539"/><use xlink:href="#13" y="21.71"/><use xlink:href="#14" y="23.881"/><use xlink:href="#10" y="26.052"/></svg><svg x="2205"><use xlink:href="#a"/><use xlink:href="#b" x="-.004" y="28.198"/><use xlink:href="#4"/><use xlink:href="#5" y="2.171"/><use xlink:href="#6" y="4.342"/><use xlink:href="#7" y="6.513"/><use xlink:href="#8" y="8.684"/><use xlink:href="#9" y="10.855"/><use xlink:href="#10" y="13.026"/><use xlink:href="#11" y="15.197"/><use xlink:href="#5" y="17.368"/><use xlink:href="#12" y="19.539"/><use xlink:href="#13" y="21.71"/><use xlink:href="#14" y="23.881"/><use xlink:href="#10" y="26.052"/></svg><svg x="2310"><use xlink:href="#a"/><use xlink:href="#b" x="18.996" y="28.198"/><use xlink:href="#4"/><use xlink:href="#5" y="2.171"/><use xlink:href="#6" y="4.342"/><use xlink:href="#7" y="6.513"/><use xlink:href="#8" y="8.684"/><use xlink:href="#9" y="10.855"/><use xlink:href="#10" y="13.026"/><use xlink:href="#11" y="15.197"/><use xlink:href="#5" y="17.368"/><use xlink:href="#12" y="19.539"/><use xlink:href="#13" y="21.71"/><use xlink:href="#14" y="23.881"/><use xlink:href="#10" y="26.052"/><use xlink:href="#1" y="28.223"/></svg><svg x="2415"><use xlink:href="#a"/><use xlink:href="#b" x="19.996" y="28.198"/><use xlink:href="#4"/><use xlink:href="#5" y="2.171"/><use xlink:href="#6" y="4.342"/><use xlink:href="#7" y="6.513"/><use xlink:href="#8" y="8.684"/><use xlink:href="#9" y="10.855"/><use xlink:href="#10" y="13.026"/><use xlink:href="#11" y="15.197"/><use xlink:href="#5" y="17.368"/><use xlink:href="#12" y="19.539"/><use xlink:href="#13" y="21.71"/><use xlink:href="#14" y="23.881"/><use xlink:href="#10" y="26.052"/><text y="29.893" class="f">amalker</text><text x="7.014" y="29.893" class="g">:</text><text x="8.016" y="29.893" class="h">json_test</text><text x="17.034" y="29.893" class="g">$</text><text x="19.038" y="29.893" class="g">g</text></svg><svg x="2520"><use xlink:href="#a"/><use xlink:href="#b" x="20.996" y="28.198"/><use xlink:href="#4"/><use xlink:href="#5" y="2.171"/><use xlink:href="#6" y="4.342"/><use xlink:href="#7" y="6.513"/><use xlink:href="#8" y="8.684"/><use xlink:href="#9" y="10.855"/><use xlink:href="#10" y="13.026"/><use xlink:href="#11" y="15.197"/><use xlink:href="#5" y="17.368"/><use xlink:href="#12" y="19.539"/><use xlink:href="#13" y="21.71"/><use xlink:href="#14" y="23.881"/><use xlink:href="#10" y="26.052"/><text y="29.893" class="f">amalker</text><text x="7.014" y="29.893" class="g">:</text><text x="8.016" y="29.893" class="h">json_test</text><text x="17.034" y="29.893" class="g">$</text><text x="19.038" y="29.893" class="g">ge</text></svg><svg x="2625"><use xlink:href="#a"/><use xlink:href="#b" x="21.996" y="28.198"/><use xlink:href="#4"/><use xlink:href="#5" y="2.171"/><use xlink:href="#6" y="4.342"/><use xlink:href="#7" y="6.513"/><use xlink:href="#8" y="8.684"/><use xlink:href="#9" y="10.855"/><use xlink:href="#10" y="13.026"/><use xlink:href="#11" y="15.197"/><use xlink:href="#5" y="17.368"/><use xlink:href="#12" y="19.539"/><use xlink:href="#13" y="21.71"/><use xlink:href="#14" y="23.881"/><use xlink:href="#10" y="26.052"/><text y="29.893" class="f">amalker</text><text x="7.014" y="29.893" class="g">:</text><text x="8.016" y="29.893" class="h">json_test</text><text x="17.034" y="29.893" class="g">$</text><text x="19.038" y="29.893" class="g">gen</text></svg><svg x="2730"><use xlink:href="#a"/><use xlink:href="#b" x="22.996" y="28.198"/><use xlink:href="#4"/><use xlink:href="#5" y="2.171"/><use xlink:href="#6" y="4.342"/><use xlink:href="#7" y="6.513"/><use xlink:href="#8" y="8.684"/><use xlink:href="#9" y="10.855"/><use xlink:href="#10" y="13.026"/><use xlink:href="#11" y="15.197"/><use xlink:href="#5" y="17.368"/><use xlink:href="#12" y="19.539"/><use xlink:href="#13" y="21.71"/><use xlink:href="#14" y="23.881"/><use xlink:href="#10" y="26.052"/><text y="29.893" class="f">amalker</text><text x="7.014" y="29.893" class="g">:</text><text x="8.016" y="29.893" class="h">json_test</text><text x="17.034" y="29.893" class="g">$</text><text x="19.038" y="29.893" class="g">gend</text></svg><svg x="2835"><use xlink:href="#a"/><use xlink:href="#b" x="23.996" y="28.198"/><use xlink:href="#4"/><use xlink:href="#5" y="2.171"/><use xlink:href="#6" y="4.342"/><use xlink:href="#7" y="6.513"/><use xlink:href="#8" y="8.684"/><use xlink:href="#9" y="10.855"/><use xlink:href="#10" y="13.026"/><use xlink:href="#11" y="15.197"/><use xlink:href="#5" y="17.368"/><use xlink:href="#12" y="19.539"/><use xlink:href="#13" y="21.71"/><use xlink:href="#14" y="23.881"/><use xlink:href="#10" y="26.052"/><text y="29.893" class="f">amalker</text><text x="7.014" y="29.893" class="g">:</text><text x="8.016" y="29.893" class="h">json_test</text><text x="17.034" y="29.893" class="g">$</text><text x="19.038" y="29.893" class="g">gendi</text></svg><svg x="2940"><use xlink:href="#a"/><use xlink:href="#b" x="24.996" y="28.198"/><use xlink:href="#4"/><use xlink:href="#5" y="2.171"/><use xlink:href="#6" y="4.342"/><use xlink:href="#7" y="6.513"/><use xlink:href="#8" y="8.684"/><use xlink:href="#9" y="10.855"/><use xlink:href="#10" y="13.026"/><use xlink:href="#11" y="15.197"/><use xlink:href="#5" y="17.368"/><use xlink:href="#12" y="19.539"/><use xlink:href="#13" y="21.71"/><use xlink:href="#14" y="23.881"/><use xlink:href="#10" y="26.052"/><text y="29.893" class="f">amalker</text><text x="7.014" y="29.893" class="g">:</text><text x="8.016" y="29.893" class="h">json_test</text><text x="17.034" y="29.893" class="g">$</text><text x="19.038" y="29.893" class="g">gendif</text></svg><svg x="3045"><use xlink:href="#a"/><use xlink:href="#b" x="25.996" y="28.198"/><use xlink:href="#4"/><use xlink:href="#5" y="2.171"/><use xlink:href="#6" y="4.342"/><use xlink:href="#7" y="6.513"/><use xlink:href="#8" y="8.684"/><use xlink:href="#9" y="10.855"/><use xlink:href="#10" y="13.026"/><use xlink:href="#11" y="15.197"/><use xlink:href="#5" y="17.368"/><use xlink:href="#12" y="19.539"/><use xlink:href="#13" y="21.71"/><use xlink:href="#14" y="23.881"/><use xlink:href="#10" y="26.052"/><use xlink:href="#15" y="28.223"/></svg><svg x="3150"><use xlink:href="#a"/><use xlink:href="#b" x="26.996" y="28.198"/><use xlink:href="#4"/><use xlink:href="#5" y="2.171"/><use xlink:href="#6" y="4.342"/><use xlink:href="#7" y="6.513"/><use xlink:href="#8" y="8.684"/><use xlink:href="#9" y="10.855"/><use xlink:href="#10" y="13.026"/><use xlink:href="#11" y="15.197"/><use xlink:href="#5" y="17.368"/><use xlink:href="#12" y="19.539"/><use xlink:href="#13" y="21.71"/><use xlink:href="#14" y="23.881"/><use xlink:href="#10" y="26.052"/><use xlink:href="#15" y="28.223"/></svg><svg x="3255"><use xlink:href="#a"/><use xlink:href="#b" x="27.996" y="28.198"/><use xlink:href="#4"/><use xlink:href="#5" y="2.171"/><use xlink:href="#6" y="4.342"/><use xlink:href="#7" y="6.513"/><use xlink:href="#8" y="8.684"/><use xlink:href="#9" y="10.855"/><use xlink:href="#10" y="13.026"/><use xlink:href="#11" y="15.197"/><use xlink:href="#5" y="17.368"/><use xlink:href="#12" y="19.539"/><use xlink:href="#13" y="21.71"/><use xlink:href="#14" y="23.881"/><use xlink:href="#10" y="26.052"/><text y="29.893" class="f">amalker</text><text x="7.014" y="29.893" class="g">:</text><text x="8.016" y="29.893" class="h">json_test</text><text x="17.034" y="29.893" class="g">$</text><text x="19.038" y="29.893" class="g">gendiff</text><text x="27.054" y="29.893" class="g">-</text></svg><svg x="3360"><use xlink:href="#a"/><use xlink:href="#b" x="28.996" y="28.198"/><use xlink:href="#4"/><use xlink:href="#5" y="2.171"/><use xlink:href="#6" y="4.342"/><use xlink:href="#7" y="6.513"/><use xlink:href="#8" y="8.684"/><use xlink:href="#9" y="10.855"/><use xlink:href="#10" y="13.026"/><use xlink:href="#11" y="15.197"/><use xlink:href="#5" y="17.368"/><use xlink:href="#12" y="19.539"/><use xlink:href="#13" y="21.71"/><use xlink:href="#14" y="23.881"/><use xlink:href="#10" y="26.052"/><use xlink:href="#16" y="28.223"/></svg><svg x="3465"><use xlink:href="#a"/><use xlink:href="#b" x="29.996" y="28.198"/><use xlink:href="#4"/><use xlink:href="#5" y="2.171"/><use xlink:href="#6" y="4.342"/><use xlink:href="#7" y="6.513"/><use xlink:href="#8" y="8.684"/><use xlink:href="#9" y="10.855"/><use xlink:href="#10" y="13.026"/><use xlink:href="#11" y="15.197"/><use xlink:href="#5" y="17.368"/><use xlink:href="#12" y="19.539"/><use xlink:href="#13" y="21.71"/><use xlink:href="#14" y="23.881"/><use xlink:href="#10" y="26.052"/><use xlink:href="#16" y="28.223"/></svg><svg x="3570"><use xlink:href="#a"/><use xlink:href="#b" x="30.996" y="28.198"/><use xlink:href="#4"/><use xlink:href="#5" y="2.171"/><use xlink:href="#6" y="4.342"/><use xlink:href="#7" y="6.513"/><use xlink:href="#8" y="8.684"/><use xlink:href="#9" y="10.855"/><use xlink:href="#10" y="13.026"/><use xlink:href="#11" y="15.197"/><use xlink:href="#5" y="17.368"/><use xlink:href="#12" y="19.539"/><use xlink:href="#13" y="21.71"/><use xlink:href="#14" y="23.881"/><use xlink:href="#10" y="26.052"/><text y="29.893" class="f">amalker</text><text x="7.014" y="29.893" class="g">:</text><text x="8.016" y="29.893" class="h">json_test</text><text x="17.034" y="29.893" class="g">$</text><text x="19.038" y="29.893" class="g">gendiff</text><text x="27.054" y="29.893" class="g">-f</text><text x="30.06" y="29.893" class="g">p</text></svg><svg x="3675"><use xlink:href="#a"/><use xlink:href="#b" x="31.996" y="28.198"/><use xlink:href="#4"/><use xlink:href="#5" y="2.171"/><use xlink:href="#6" y="4.342"/><use xlink:href="#7" y="6.513"/><use xlink:href="#8" y="8.684"/><use xlink:href="#9" y="10.855"/><use xlink:href="#10" y="13.026"/><use xlink:href="#11" y="15.197"/><use xlink:href="#5" y="17.368"/><use xlink:href="#12" y="19.539"/><use xlink:href="#13" y="21.71"/><use xlink:href="#14" y="23.881"/><use xlink:href="#10" y="26.052"/><text y="29.893" class="f">amalker</text><text x="7.014" y="29.893" class="g">:</text><text x="8.016" y="29.893" class="h">json_test</text><text x="17.034" y="29.893" class="g">$</text><text x="19.038" y="29.893" class="g">gendiff</text><text x="27.054" y="29.893" class="g">-f</text><text x="30.06" y="29.893" class="g">pl</text></svg><svg x="3780"><use xlink:href="#a"/><use xlink:href="#b" x="32.996" y="28.198"/><use xlink:href="#4"/><use xlink:href="#5" y="2.171"/><use xlink:href="#6" y="4.342"/><use xlink:href="#7" y="6.513"/><use xlink:href="#8" y="8.684"/><use xlink:href="#9" y="10.855"/><use xlink:href="#10" y="13.026"/><use xlink:href="#11" y="15.197"/><use xlink:href="#5" y="17.368"/><use xlink:href="#12" y="19.539"/><use xlink:href="#13" y="21.71"/><use xlink:href="#14" y="23.881"/><use xlink:href="#10" y="26.052"/><text y="29.893" class="f">amalker</text><text x="7.014" y="29.893" class="g">:</text><text x="8.016" y="29.893" class="h">json_test</text><text x="17.034" y="29.893" class="g">$</text><text x="19.038" y="29.893" class="g">gendiff</text><text x="27.054" y="29.893" class="g">-f</text><text x="30.06" y="29.893" class="g">pla</text></svg><svg x="3885"><use xlink:href="#a"/><use xlink:href="#b" x="33.996" y="28.198"/><use xlink:href="#4"/><use xlink:href="#5" y="2.171"/><use xlink:href="#6" y="4.342"/><use xlink:href="#7" y="6.513"/><use xlink:href="#8" y="8.684"/><use xlink:href="#9" y="10.855"/><use xlink:href="#10" y="13.026"/><use xlink:href="#11" y="15.197"/><use xlink:href="#5" y="17.368"/><use xlink:href="#12" y="19.539"/><use xlink:href="#13" y="21.71"/><use xlink:href="#14" y="23.881"/><use xlink:href="#10" y="26.052"/><text y="29.893" class="f">amalker</text><text x="7.014" y="29.893" class="g">:</text><text x="8.016" y="29.893" class="h">json_test</text><text x="17.034" y="29.893" class="g">$</text><text x="19.038" y="29.893" class="g">gendiff</text><text x="27.054" y="29.893" class="g">-f</text><text x="30.06" y="29.893" class="g">plai</text></svg><svg x="3990"><use xlink:href="#a"/><use xlink:href="#b" x="34.996" y="28.198"/><use xlink:href="#4"/><use xlink:href="#5" y="2.171"/><use xlink:href="#6" y="4.342"/><use xlink:href="#7" y="6.513"/><use xlink:href="#8" y="8.684"/><use xlink:href="#9" y="10.855"/><use xlink:href="#10" y="13.026"/><use xlink:href="#11" y="15.197"/><use xlink:href="#5" y="17.368"/><use xlink:href="#12" y="19.539"/><use xlink:href="#13" y="21.71"/><use xlink:href="#14" y="23.881"/><use xlink:href="#10" y="26.052"/><use xlink:href="#17" y="28.223"/></svg><svg x="4095"><use xlink:href="#a"/><use xlink:href="#b" x="35.996" y="28.198"/><use xlink:href="#4"/><use xlink:href="#5" y="2.171"/><use xlink:href="#6" y="4.342"/><use xlink:href="#7" y="6.513"/><use xlink:href="#8" y="8.684"/><use xlink:href="#9" y="10.855"/><use xlink:href="#10" y="13.026"/><use xlink:href="#11" y="15.197"/><use xlink:href="#5" y="17.368"/><use xlink:href="#12" y="19.539"/><use xlink:href="#13" y="21.71"/><use xlink:href="#14" y="23.881"/><use xlink:href="#10" y="26.052"/><use xlink:href="#17" y="28.223"/></svg><svg x="4200"><use xlink:href="#a"/><use xlink:href="#b" x="36.996" y="28.198"/><use xlink:href="#4"/><use xlink:href="#5" y="2.171"/><use xlink:href="#6" y="4.342"/><use xlink:href="#7" y="6.513"/><use xlink:href="#8" y="8.684"/><use xlink:href="#9" y="10.855"/><use xlink:href="#10" y="13.026"/><use xlink:href="#11" y="15.197"/><use xlink:href="#5" y="17.368"/><use xlink:href="#12" y="19.539"/><use xlink:href="#13" y="21.71"/><use xlink:href="#14" y="23.881"/><use xlink:href="#10" y="26.052"/><text y="29.893" class="f">amalker</text><text x="7.014" y="29.893" class="g">:</text><text x="8.016" y="29.893" class="h">json_test</text><text x="17.034" y="29.893" class="g">$</text><text x="19.038" y="29.893" class="g">gendiff</text><text x="27.054" y="29.893" class="g">-f</text><text x="30.06" y="29.893" class="g">plain</text><text x="36.072" y="29.893" class="g">j</text></svg><svg x="4305"><use xlink:href="#a"/><use xlink:href="#b" x="37.996" y="28.198"/><use xlink:href="#4"/><use xlink:href="#5" y="2.171"/><use xlink:href="#6" y="4.342"/><use xlink:href="#7" y="6.513"/><use xlink:href="#8" y="8.684"/><use xlink:href="#9" y="10.855"/><use xlink:href="#10" y="13.026"/><use xlink:href="#11" y="15.197"/><use xlink:href="#5" y="17.368"/><use xlink:href="#12" y="19.539"/><use xlink:href="#13" y="21.71"/><use xlink:href="#14" y="23.881"/><use xlink:href="#10" y="26.052"/><text y="29.893" class="f">amalker</text><text x="7.014" y="29.893" class="g">:</text><text x="8.016" y="29.893" class="h">json_test</text><text x="17.034" y="29.893" class="g">$</text><text x="19.038" y="29.893" class="g">gendiff</text><text x="27.054" y="29.893" class="g">-f</text><text x="30.06" y="29.893" class="g">plain</text><text x="36.072" y="29.893" class="g">js</text></svg><svg x="4410"><use xlink:href="#a"/><use xlink:href="#b" x="38.996" y="28.198"/><use xlink:href="#4"/><use xlink:href="#5" y="2.171"/><use xlink:href="#6" y="4.342"/><use xlink:href="#7" y="6.513"/><use xlink:href="#8" y="8.684"/><use xlink:href="#9" y="10.855"/><use xlink:href="#10" y="13.026"/><use xlink:href="#11" y="15.197"/><use xlink:href="#5" y="17.368"/><use xlink:href="#12" y="19.539"/><use xlink:href="#13" y="21.71"/><use xlink:href="#14" y="23.881"/><use xlink:href="#10" y="26.052"/><text y="29.893" class="f">amalker</text><text x="7.014" y="29.893" class="g">:</text><text x="8.016" y="29.893" class="h">json_test</text><text x="17.034" y="29.893" class="g">$</text><text x="19.038" y="29.893" class="g">gendiff</text><text x="27.054" y="29.893" class="g">-f</text><text x="30.06" y="29.893" class="g">plain</text><text x="36.072" y="29.893" class="g">jso</text></svg><svg x="4515"><use xlink:href="#a"/><use xlink:href="#b" x="39.996" y="28.198"/><use xlink:href="#4"/><use xlink:href="#5" y="2.171"/><use xlink:href="#6" y="4.342"/><use xlink:href="#7" y="6.513"/><use xlink:href="#8" y="8.684"/><use xlink:href="#9" y="10.855"/><use xlink:href="#10" y="13.026"/><use xlink:href="#11" y="15.197"/><use xlink:href="#5" y="17.368"/><use xlink:href="#12" y="19.539"/><use xlink:href="#13" y="21.71"/><use xlink:href="#14" y="23.881"/><use xlink:href="#10" y="26.052"/><text y="29.893" class="f">amalker</text><text x="7.014" y="29.893" class="g">:</text><text x="8.016" y="29.893" class="h">json_test</text><text x="17.034" y="29.893" class="g">$</text><text x="19.038" y="29.893" class="g">gendiff</text><text x="27.054" y="29.893" class="g">-f</text><text x="30.06" y="29.893" class="g">plain</text><text x="36.072" y="29.893" class="g">json</text></svg><svg x="4620"><use xlink:href="#a"/><use xlink:href="#b" x="40.996" y="28.198"/><use xlink:href="#4"/><use xlink:href="#5" y="2.171"/><use xlink:href="#6" y="4.342"/><use xlink:href="#7" y="6.513"/><use xlink:href="#8" y="8.684"/><use xlink:href="#9" y="10.855"/><use xlink:href="#10" y="13.026"/><use xlink:href="#11" y="15.197"/><use xlink:href="#5" y="17.368"/><use xlink:href="#12" y="19.539"/><use xlink:href="#13" y="21.71"/><use xlink:href="#14" y="23.881"/><use xlink:href="#10" y="26.052"/><use xlink:href="#18" y="28.223"/></svg><svg x="4725"><use xlink:href="#a"/><use xlink:href="#b" x="41.996" y="28.198"/><use xlink:href="#4"/><use xlink:href="#5" y="2.171"/><use xlink:href="#6" y="4.342"/><use xlink:href="#7" y="6.513"/><use xlink:href="#8" y="8.684"/><use xlink:href="#9" y="10.855"/><use xlink:href="#10" y="13.026"/><use xlink:href="#11" y="15.197"/><use xlink:href="#5" y="17.368"/><use xlink:href="#12" y="19.539"/><use xlink:href="#13" y="21.71"/><use xlink:href="#14" y="23.881"/><use xlink:href="#10" y="26.052"/><use xlink:href="#18" y="28.223"/></svg><svg x="4830"><use xlink:href="#a"/><use xlink:href="#b" x="42.996" y="28.198"/><use xlink:href="#4"/><use xlink:href="#5" y="2.171"/><use xlink:href="#6" y="4.342"/><use xlink:href="#7" y="6.513"/><use xlink:href="#8" y="8.684"/><use xlink:href="#9" y="10.855"/><use xlink:href="#10" y="13.026"/><use xlink:href="#11" y="15.197"/><use xlink:href="#5" y="17.368"/><use xlink:href="#12" y="19.539"/><use xlink:href="#13" y="21.71"/><use xlink:href="#14" y="23.881"/><use xlink:href="#10" y="26.052"/><text y="29.893" class="f">amalker</text><text x="7.014" y="29.893" class="g">:</text><text x="8.016" y="29.893" class="h">json_test</text><text x="17.034" y="29.893" class="g">$</text><text x="19.038" y="29.893" class="g">gendiff</text><text x="27.054" y="29.893" class="g">-f</text><text x="30.06" y="29.893" class="g">plain</text><text x="36.072" y="29.893" class="g">json1</text><text x="42.084" y="29.893" class="g">j</text></svg><svg x="4935"><use xlink:href="#a"/><use xlink:href="#b" x="43.996" y="28.198"/><use xlink:href="#4"/><use xlink:href="#5" y="2.171"/><use xlink:href="#6" y="4.342"/><use xlink:href="#7" y="6.513"/><use xlink:href="#8" y="8.684"/><use xlink:href="#9" y="10.855"/><use xlink:href="#10" y="13.026"/><use xlink:href="#11" y="15.197"/><use xlink:href="#5" y="17.368"/><use xlink:href="#12" y="19.539"/><use xlink:href="#13" y="21.71"/><use xlink:href="#14" y="23.881"/><use xlink:href="#10" y="26.052"/><text y="29.893" class="f">amalker</text><text x="7.014" y="29.893" class="g">:</text><text x="8.016" y="29.893" class="h">json_test</text><text x="17.034" y="29.893" class="g">$</text><text x="19.038" y="29.893" class="g">gendiff</text><text x="27.054" y="29.893" class="g">-f</text><text x="30.06" y="29.893" class="g">plain</text><text x="36.072" y="29.893" class="g">json1</text><text x="42.084" y="29.893" class="g">js</text></svg><svg x="5040"><use xlink:href="#a"/><use xlink:href="#b" x="44.996" y="28.198"/><use xlink:href="#4"/><use xlink:href="#5" y="2.171"/><use xlink:href="#6" y="4.342"/><use xlink:href="#7" y="6.513"/><use xlink:href="#8" y="8.684"/><use xlink:href="#9" y="10.855"/><use xlink:href="#10" y="13.026"/><use xlink:href="#11" y="15.197"/><use xlink:href="#5" y="17.368"/><use xlink:href="#12" y="19.539"/><use xlink:href="#13" y="21.71"/><use xlink:href="#14" y="23.881"/><use xlink:href="#10" y="26.052"/><text y="29.893" class="f">amalker</text><text x="7.014" y="29.893" class="g">:</text><text x="8.016" y="29.893" class="h">json_test</text><text x="17.034" y="29.893" class="g">$</text><text x="19.038" y="29.893" class="g">gendiff</text><text x="27.054" y="29.893" class="g">-f</text><text x="30.06" y="29.893" class="g">plain</text><text x="36.072" y="29.893" class="g">json1</text><text x="42.084" y="29.893" class="g">jso</text></svg><svg x="5145"><use xlink:href="#a"/><use xlink:href="#b" x="45.996" y="28.198"/><use xlink:href="#4"/><use xlink:href="#5" y="2.171"/><use xlink:href="#6" y="4.342"/><use xlink:href="#7" y="6.513"/><use xlink:href="#8" y="8.684"/><use xlink:href="#9" y="10.855"/><use xlink:href="#10" y="13.026"/><use xlink:href="#11" y="15.197"/><use xlink:href="#5" y="17.368"/><use xlink:href="#12" y="19.539"/><use xlink:href="#13" y="21.71"/><use xlink:href="#14" y="23.881"/><use xlink:href="#10" y="26.052"/><text y="29.893" class="f">amalker</text><text x="7.014" y="29.893" class="g">:</text><text x="8.016" y="29.893" class="h">json_test</text><text x="17.034" y="29.893" class="g">$</text><text x="19.038" y="29.893" class="g">gendiff</text><text x="27.054" y="29.893" class="g">-f</text><text x="30.06" y="29.893" class="g">plain</text><text x="36.072" y="29.893" class="g">json1</text><text x="42.084" y="29.893" class="g">json</text></svg><svg x="5250"><use xlink:href="#a"/><use xlink:href="#b" x="46.996" y="28.198"/><use xlink:href="#4"/><use xlink:href="#5" y="2.171"/><use xlink:href="#6" y="4.342"/><use xlink:href="#7" y="6.513"/><use xlink:href="#8" y="8.684"/><use xlink:href="#9" y="10.855"/><use xlink:href="#10" y="13.026"/><use xlink:href="#11" y="15.197"/><use xlink:href="#5" y="17.368"/><use xlink:href="#12" y="19.539"/><use xlink:href="#13" y="21.71"/><use xlink:href="#14" y="23.881"/><use xlink:href="#10" y="26.052"/><use xlink:href="#19" y="28.223"/></svg><svg x="5355"><use xlink:href="#a"/><use xlink:href="#b" x="-.004" y="30.369"/><use xlink:href="#4"/><use xlink:href="#5" y="2.171"/><use xlink:href="#6" y="4.342"/><use xlink:href="#7" y="6.513"/><use xlink:href="#8" y="8.684"/><use xlink:href="#9" y="10.855"/><use xlink:href="#10" y="13.026"/><use xlink:href="#11" y="15.197"/><use xlink:href="#5" y="17.368"/><use xlink:href="#12" y="19.539"/><use xlink:href="#13" y="21.71"/><use xlink:href="#14" y="23.881"/><use xlink:href="#10" y="26.052"/><use xlink:href="#19" y="28.223"/></svg><svg x="5460"><use xlink:href="#a"/><use xlink:href="#b" x="-.004" y="47.737"/><use xlink:href="#4"/><use xlink:href="#5" y="2.171"/><use xlink:href="#6" y="4.342"/><use xlink:href="#7" y="6.513"/><use xlink:href="#8" y="8.684"/><use xlink:href="#9" y="10.855"/><use xlink:href="#10" y="13.026"/><use xlink:href="#11" y="15.197"/><use xlink:href="#5" y="17.368"/><use xlink:href="#12" y="19.539"/><use xlink:href="#13" y="21.71"/><use xlink:href="#14" y="23.881"/><use xlink:href="#10" y="26.052"/><use xlink:href="#19" y="28.223"/><use xlink:href="#5" y="30.394"/><use xlink:href="#20" y="32.565"/><use xlink:href="#21" y="34.736"/><use xlink:href="#22" y="36.907"/><use xlink:href="#23" y="39.078"/><use xlink:href="#24" y="41.249"/><use xlink:href="#25" y="43.42"/><use xlink:href="#10" y="45.591"/></svg><svg x="5565"><use xlink:href="#a"/><use xlink:href="#b" x="-.004" y="47.737"/><use xlink:href="#4"/><use xlink:href="#5" y="2.171"/><use xlink:href="#6" y="4.342"/><use xlink:href="#7" y="6.513"/><use xlink:href="#8" y="8.684"/><use xlink:href="#9" y="10.855"/><use xlink:href="#10" y="13.026"/><use xlink:href="#11" y="15.197"/><use xlink:href="#5" y="17.368"/><use xlink:href="#12" y="19.539"/><use xlink:href="#13" y="21.71"/><use xlink:href="#14" y="23.881"/><use xlink:href="#10" y="26.052"/><use xlink:href="#19" y="28.223"/><use xlink:href="#5" y="30.394"/><use xlink:href="#20" y="32.565"/><use xlink:href="#21" y="34.736"/><use xlink:href="#22" y="36.907"/><use xlink:href="#23" y="39.078"/><use xlink:href="#24" y="41.249"/><use xlink:href="#25" y="43.42"/><use xlink:href="#10" y="45.591"/></svg><svg x="5670"><use xlink:href="#a"/><use xlink:href="#b" x="18.996" y="47.737"/><use xlink:href="#4"/><use xlink:href="#5" y="2.171"/><use xlink:href="#6" y="4.342"/><use xlink:href="#7" y="6.513"/><use xlink:href="#8" y="8.684"/><use xlink:href="#9" y="10.855"/><use xlink:href="#10" y="13.026"/><use xlink:href="#11" y="15.197"/><use xlink:href="#5" y="17.368"/><use xlink:href="#12" y="19.539"/><use xlink:href="#13" y="21.71"/><use xlink:href="#14" y="23.881"/><use xlink:href="#10" y="26.052"/><use xlink:href="#19" y="28.223"/><use xlink:href="#5" y="30.394"/><use xlink:href="#20" y="32.565"/><use xlink:href="#21" y="34.736"/><use xlink:href="#22" y="36.907"/><use xlink:href="#23" y="39.078"/><use xlink:href="#24" y="41.249"/><use xlink:href="#25" y="43.42"/><use xlink:href="#10" y="45.591"/><use xlink:href="#1" y="47.762"/></svg><svg x="5775"><use xlink:href="#a"/><use xlink:href="#b" x="-.004" y="49.908"/><use xlink:href="#4"/><use xlink:href="#5" y="2.171"/><use xlink:href="#6" y="4.342"/><use xlink:href="#7" y="6.513"/><use xlink:href="#8" y="8.684"/><use xlink:href="#9" y="10.855"/><use xlink:href="#10" y="13.026"/><use xlink:href="#11" y="15.197"/><use xlink:href="#5" y="17.368"/><use xlink:href="#12" y="19.539"/><use xlink:href="#13" y="21.71"/><use xlink:href="#14" y="23.881"/><use xlink:href="#10" y="26.052"/><use xlink:href="#19" y="28.223"/><use xlink:href="#5" y="30.394"/><use xlink:href="#20" y="32.565"/><use xlink:href="#21" y="34.736"/><use xlink:href="#22" y="36.907"/><use xlink:href="#23" y="39.078"/><use xlink:href="#24" y="41.249"/><use xlink:href="#25" y="43.42"/><use xlink:href="#10" y="45.591"/><text y="49.432" class="f">amalker</text><text x="7.014" y="49.432" class="g">:</text><text x="8.016" y="49.432" class="h">json_test</text><text x="17.034" y="49.432" class="g">$</text><text x="19.038" y="49.432" class="g">logout</text></svg></svg></g></g></svg></svg>