<svg xmlns="http://www.w3.org/2000/svg" xmlns:xlink="http://www.w3.org/1999/xlink" width="1090" height="81.71"><rect width="1090" height="81.71" rx="5" ry="5" class="a"/><svg y="0%" x="0%"><circle cx="20" cy="20" r="6" fill="#ff5f58"/><circle cx="40" cy="20" r="6" fill="#ffbd2e"/><circle cx="60" cy="20" r="6" fill="#18c132"/></svg><svg height="21.71" viewBox="0 0 105 2.171" width="1050" x="15" xmlns="http://www.w3.org/2000/svg" xmlns:xlink="http://www.w3.org/1999/xlink" y="50"><style>@keyframes k{0%{transform:translateX(0)}1.62%{transform:translateX(-105px)}1.63%{transform:translateX(-210px)}6.87%{transform:translateX(-315px)}8.07%{transform:translateX(-420px)}11.43%{transform:translateX(-525px)}12.36%{transform:translateX(-630px)}13.16%{transform:translateX(-735px)}14.79%{transform:translateX(-840px)}15.8%{transform:translateX(-945px)}16.45%{transform:translateX(-1050px)}18.08%{transform:translateX(-1155px)}19.32%{transform:translateX(-1260px)}20.46%{transform:translateX(-1365px)}22.81%{transform:translateX(-1470px)}24.81%{transform:translateX(-1575px)}25.91%{transform:translateX(-1680px)}26.78%{transform:translateX(-1785px)}28.23%{transform:translateX(-1890px)}31.19%{transform:translateX(-1995px)}32.23%{transform:translateX(-2100px)}33.28%{transform:translateX(-2205px)}34.45%{transform:translateX(-2310px)}35.76%{transform:translateX(-2415px)}37.44%{transform:translateX(-2520px)}47.2%{transform:translateX(-2625px)}47.72%{transform:translateX(-2730px)}48.54%{transform:translateX(-2835px)}49.38%{transform:translateX(-2940px)}51%{transform:translateX(-3045px)}52.49%{transform:translateX(-3150px)}53.68%{transform:translateX(-3255px)}56.49%{transform:translateX(-3360px)}57.13%{transform:translateX(-3465px)}57.83%{transform:translateX(-3570px)}59.63%{transform:translateX(-3675px)}65.17%{transform:translateX(-3780px)}66.28%{transform:translateX(-3885px)}70.4%{transform:translateX(-3990px)}70.8%{transform:translateX(-4095px)}72.26%{transform:translateX(-4200px)}73.88%{transform:translateX(-4305px)}77.73%{transform:translateX(-4410px)}80.12%{transform:translateX(-4515px)}87%{transform:translateX(-4620px)}89.4%{transform:translateX(-4725px)}89.55%{transform:translateX(-4830px)}89.69%{transform:translateX(-4935px)}89.84%{transform:translateX(-5040px)}89.99%{transform:translateX(-5145px)}90.13%{transform:translateX(-5250px)}90.28%{transform:translateX(-5355px)}90.42%{transform:translateX(-5460px)}90.59%{transform:translateX(-5565px)}90.73%{transform:translateX(-5670px)}90.86%{transform:translateX(-5775px)}91.01%{transform:translateX(-5880px)}91.16%{transform:translateX(-5985px)}91.3%{transform:translateX(-6090px)}91.44%{transform:translateX(-6195px)}91.6%{transform:translateX(-6300px)}91.74%{transform:translateX(-6405px)}91.88%{transform:translateX(-6510px)}92.03%{transform:translateX(-6615px)}92.17%{transform:translateX(-6720px)}92.32%{transform:translateX(-6825px)}92.47%{transform:translateX(-6930px)}92.62%{transform:translateX(-7035px)}92.77%{transform:translateX(-7140px)}92.91%{transform:translateX(-7245px)}93.05%{transform:translateX(-7350px)}93.19%{transform:translateX(-7455px)}93.35%{transform:translateX(-7560px)}93.49%{transform:translateX(-7665px)}93.64%{transform:translateX(-7770px)}93.78%{transform:translateX(-7875px)}93.92%{transform:translateX(-7980px)}94.07%{transform:translateX(-8085px)}94.22%{transform:translateX(-8190px)}94.37%{transform:translateX(-8295px)}94.51%{transform:translateX(-8400px)}94.65%{transform:translateX(-8505px)}94.8%{transform:translateX(-8610px)}94.95%{transform:translateX(-8715px)}95.09%{transform:translateX(-8820px)}95.24%{transform:translateX(-8925px)}to{transform:translateX(-9030px)}}.a{fill:#282d35}.f,.g,.h{white-space:pre}.f{fill:#a8cc8c;font-weight:700}.g,.h{fill:#b9c0cb}.h{fill:#71bef2;font-weight:700}</style><g font-family="Monaco,Consolas,Menlo,'Bitstream Vera Sans Mono','Powerline Symbols',monospace" font-size="1.67"><defs><symbol id="1"><text y="1.67" class="f">amalker</text><text x="7.014" y="1.67" class="g">:</text><text x="8.016" y="1.67" class="h">frontend-project-lvl2</text><text x="29.058" y="1.67" class="g">$</text></symbol><symbol id="2"><text y="1.67" class="f">amalker</text><text x="7.014" y="1.67" class="g">:</text><text x="8.016" y="1.67" class="h">frontend-project-lvl2</text><text x="29.058" y="1.67" class="g">$</text><text x="31.062" y="1.67" class="g">W</text></symbol><symbol id="3"><text y="1.67" class="f">amalker</text><text x="7.014" y="1.67" class="g">:</text><text x="8.016" y="1.67" class="h">frontend-project-lvl2</text><text x="29.058" y="1.67" class="g">$</text><text x="31.062" y="1.67" class="g">We</text></symbol><symbol id="4"><text y="1.67" class="f">amalker</text><text x="7.014" y="1.67" class="g">:</text><text x="8.016" y="1.67" class="h">frontend-project-lvl2</text><text x="29.058" y="1.67" class="g">$</text><text x="31.062" y="1.67" class="g">Wel</text></symbol><symbol id="5"><text y="1.67" class="f">amalker</text><text x="7.014" y="1.67" class="g">:</text><text x="8.016" y="1.67" class="h">frontend-project-lvl2</text><text x="29.058" y="1.67" class="g">$</text><text x="31.062" y="1.67" class="g">Welc</text></symbol><symbol id="6"><text y="1.67" class="f">amalker</text><text x="7.014" y="1.67" class="g">:</text><text x="8.016" y="1.67" class="h">frontend-project-lvl2</text><text x="29.058" y="1.67" class="g">$</text><text x="31.062" y="1.67" class="g">Welco</text></symbol><symbol id="7"><text y="1.67" class="f">amalker</text><text x="7.014" y="1.67" class="g">:</text><text x="8.016" y="1.67" class="h">frontend-project-lvl2</text><text x="29.058" y="1.67" class="g">$</text><text x="31.062" y="1.67" class="g">Welcom</text></symbol><symbol id="8"><text y="1.67" class="f">amalker</text><text x="7.014" y="1.67" class="g">:</text><text x="8.016" y="1.67" class="h">frontend-project-lvl2</text><text x="29.058" y="1.67" class="g">$</text><text x="31.062" y="1.67" class="g">Welcome</text></symbol><symbol id="9"><text y="1.67" class="f">amalker</text><text x="7.014" y="1.67" class="g">:</text><text x="8.016" y="1.67" class="h">frontend-project-lvl2</text><text x="29.058" y="1.67" class="g">$</text><text x="31.062" y="1.67" class="g">Welcome</text><text x="39.078" y="1.67" class="g">t</text></symbol><symbol id="10"><text y="1.67" class="f">amalker</text><text x="7.014" y="1.67" class="g">:</text><text x="8.016" y="1.67" class="h">frontend-project-lvl2</text><text x="29.058" y="1.67" class="g">$</text><text x="31.062" y="1.67" class="g">Welcome</text><text x="39.078" y="1.67" class="g">to</text></symbol><symbol id="11"><text y="1.67" class="f">amalker</text><text x="7.014" y="1.67" class="g">:</text><text x="8.016" y="1.67" class="h">frontend-project-lvl2</text><text x="29.058" y="1.67" class="g">$</text><text x="31.062" y="1.67" class="g">Welcome</text><text x="39.078" y="1.67" class="g">to</text><text x="42.084" y="1.67" class="g">D</text></symbol><symbol id="12"><text y="1.67" class="f">amalker</text><text x="7.014" y="1.67" class="g">:</text><text x="8.016" y="1.67" class="h">frontend-project-lvl2</text><text x="29.058" y="1.67" class="g">$</text><text x="31.062" y="1.67" class="g">Welcome</text><text x="39.078" y="1.67" class="g">to</text><text x="42.084" y="1.67" class="g">Di</text></symbol><symbol id="13"><text y="1.67" class="f">amalker</text><text x="7.014" y="1.67" class="g">:</text><text x="8.016" y="1.67" class="h">frontend-project-lvl2</text><text x="29.058" y="1.67" class="g">$</text><text x="31.062" y="1.67" class="g">Welcome</text><text x="39.078" y="1.67" class="g">to</text><text x="42.084" y="1.67" class="g">Dif</text></symbol><symbol id="14"><text y="1.67" class="f">amalker</text><text x="7.014" y="1.67" class="g">:</text><text x="8.016" y="1.67" class="h">frontend-project-lvl2</text><text x="29.058" y="1.67" class="g">$</text><text x="31.062" y="1.67" class="g">Welcome</text><text x="39.078" y="1.67" class="g">to</text><text x="42.084" y="1.67" class="g">Diff</text></symbol><symbol id="15"><text y="1.67" class="f">amalker</text><text x="7.014" y="1.67" class="g">:</text><text x="8.016" y="1.67" class="h">frontend-project-lvl2</text><text x="29.058" y="1.67" class="g">$</text><text x="31.062" y="1.67" class="g">Welcome</text><text x="39.078" y="1.67" class="g">to</text><text x="42.084" y="1.67" class="g">Diffe</text></symbol><symbol id="16"><text y="1.67" class="f">amalker</text><text x="7.014" y="1.67" class="g">:</text><text x="8.016" y="1.67" class="h">frontend-project-lvl2</text><text x="29.058" y="1.67" class="g">$</text><text x="31.062" y="1.67" class="g">Welcome</text><text x="39.078" y="1.67" class="g">to</text><text x="42.084" y="1.67" class="g">Differ</text></symbol><symbol id="17"><text y="1.67" class="f">amalker</text><text x="7.014" y="1.67" class="g">:</text><text x="8.016" y="1.67" class="h">frontend-project-lvl2</text><text x="29.058" y="1.67" class="g">$</text><text x="31.062" y="1.67" class="g">Welcome</text><text x="39.078" y="1.67" class="g">to</text><text x="42.084" y="1.67" class="g">Differe</text></symbol><symbol id="18"><text y="1.67" class="f">amalker</text><text x="7.014" y="1.67" class="g">:</text><text x="8.016" y="1.67" class="h">frontend-project-lvl2</text><text x="29.058" y="1.67" class="g">$</text><text x="31.062" y="1.67" class="g">Welcome</text><text x="39.078" y="1.67" class="g">to</text><text x="42.084" y="1.67" class="g">Differen</text></symbol><symbol id="19"><text y="1.67" class="f">amalker</text><text x="7.014" y="1.67" class="g">:</text><text x="8.016" y="1.67" class="h">frontend-project-lvl2</text><text x="29.058" y="1.67" class="g">$</text><text x="31.062" y="1.67" class="g">Welcome</text><text x="39.078" y="1.67" class="g">to</text><text x="42.084" y="1.67" class="g">Differenc</text></symbol><symbol id="20"><text y="1.67" class="f">amalker</text><text x="7.014" y="1.67" class="g">:</text><text x="8.016" y="1.67" class="h">frontend-project-lvl2</text><text x="29.058" y="1.67" class="g">$</text><text x="31.062" y="1.67" class="g">Welcome</text><text x="39.078" y="1.67" class="g">to</text><text x="42.084" y="1.67" class="g">Difference</text></symbol><symbol id="21"><text y="1.67" class="f">amalker</text><text x="7.014" y="1.67" class="g">:</text><text x="8.016" y="1.67" class="h">frontend-project-lvl2</text><text x="29.058" y="1.67" class="g">$</text><text x="31.062" y="1.67" class="g">Welcome</text><text x="39.078" y="1.67" class="g">to</text><text x="42.084" y="1.67" class="g">Difference</text><text x="53.106" y="1.67" class="g">g</text></symbol><symbol id="22"><text y="1.67" class="f">amalker</text><text x="7.014" y="1.67" class="g">:</text><text x="8.016" y="1.67" class="h">frontend-project-lvl2</text><text x="29.058" y="1.67" class="g">$</text><text x="31.062" y="1.67" class="g">Welcome</text><text x="39.078" y="1.67" class="g">to</text><text x="42.084" y="1.67" class="g">Difference</text><text x="53.106" y="1.67" class="g">ge</text></symbol><symbol id="23"><text y="1.67" class="f">amalker</text><text x="7.014" y="1.67" class="g">:</text><text x="8.016" y="1.67" class="h">frontend-project-lvl2</text><text x="29.058" y="1.67" class="g">$</text><text x="31.062" y="1.67" class="g">Welcome</text><text x="39.078" y="1.67" class="g">to</text><text x="42.084" y="1.67" class="g">Difference</text><text x="53.106" y="1.67" class="g">gen</text></symbol><symbol id="24"><text y="1.67" class="f">amalker</text><text x="7.014" y="1.67" class="g">:</text><text x="8.016" y="1.67" class="h">frontend-project-lvl2</text><text x="29.058" y="1.67" class="g">$</text><text x="31.062" y="1.67" class="g">Welcome</text><text x="39.078" y="1.67" class="g">to</text><text x="42.084" y="1.67" class="g">Difference</text><text x="53.106" y="1.67" class="g">gene</text></symbol><symbol id="25"><text y="1.67" class="f">amalker</text><text x="7.014" y="1.67" class="g">:</text><text x="8.016" y="1.67" class="h">frontend-project-lvl2</text><text x="29.058" y="1.67" class="g">$</text><text x="31.062" y="1.67" class="g">Welcome</text><text x="39.078" y="1.67" class="g">to</text><text x="42.084" y="1.67" class="g">Difference</text><text x="53.106" y="1.67" class="g">gener</text></symbol><symbol id="26"><text y="1.67" class="f">amalker</text><text x="7.014" y="1.67" class="g">:</text><text x="8.016" y="1.67" class="h">frontend-project-lvl2</text><text x="29.058" y="1.67" class="g">$</text><text x="31.062" y="1.67" class="g">Welcome</text><text x="39.078" y="1.67" class="g">to</text><text x="42.084" y="1.67" class="g">Difference</text><text x="53.106" y="1.67" class="g">genera</text></symbol><symbol id="27"><text y="1.67" class="f">amalker</text><text x="7.014" y="1.67" class="g">:</text><text x="8.016" y="1.67" class="h">frontend-project-lvl2</text><text x="29.058" y="1.67" class="g">$</text><text x="31.062" y="1.67" class="g">Welcome</text><text x="39.078" y="1.67" class="g">to</text><text x="42.084" y="1.67" class="g">Difference</text><text x="53.106" y="1.67" class="g">generat</text></symbol><symbol id="28"><text y="1.67" class="f">amalker</text><text x="7.014" y="1.67" class="g">:</text><text x="8.016" y="1.67" class="h">frontend-project-lvl2</text><text x="29.058" y="1.67" class="g">$</text><text x="31.062" y="1.67" class="g">Welcome</text><text x="39.078" y="1.67" class="g">to</text><text x="42.084" y="1.67" class="g">Difference</text><text x="53.106" y="1.67" class="g">generato</text></symbol><symbol id="29"><text y="1.67" class="f">amalker</text><text x="7.014" y="1.67" class="g">:</text><text x="8.016" y="1.67" class="h">frontend-project-lvl2</text><text x="29.058" y="1.67" class="g">$</text><text x="31.062" y="1.67" class="g">Welcome</text><text x="39.078" y="1.67" class="g">to</text><text x="42.084" y="1.67" class="g">Difference</text><text x="53.106" y="1.67" class="g">generator</text></symbol><symbol id="30"><text y="1.67" class="f">amalker</text><text x="7.014" y="1.67" class="g">:</text><text x="8.016" y="1.67" class="h">frontend-project-lvl2</text><text x="29.058" y="1.67" class="g">$</text><text x="31.062" y="1.67" class="g">Welcome</text><text x="39.078" y="1.67" class="g">to</text><text x="42.084" y="1.67" class="g">Difference</text><text x="53.106" y="1.67" class="g">generator</text><text x="63.126" y="1.67" class="g">p</text></symbol><symbol id="31"><text y="1.67" class="f">amalker</text><text x="7.014" y="1.67" class="g">:</text><text x="8.016" y="1.67" class="h">frontend-project-lvl2</text><text x="29.058" y="1.67" class="g">$</text><text x="31.062" y="1.67" class="g">Welcome</text><text x="39.078" y="1.67" class="g">to</text><text x="42.084" y="1.67" class="g">Difference</text><text x="53.106" y="1.67" class="g">generator</text><text x="63.126" y="1.67" class="g">pr</text></symbol><symbol id="32"><text y="1.67" class="f">amalker</text><text x="7.014" y="1.67" class="g">:</text><text x="8.016" y="1.67" class="h">frontend-project-lvl2</text><text x="29.058" y="1.67" class="g">$</text><text x="31.062" y="1.67" class="g">Welcome</text><text x="39.078" y="1.67" class="g">to</text><text x="42.084" y="1.67" class="g">Difference</text><text x="53.106" y="1.67" class="g">generator</text><text x="63.126" y="1.67" class="g">pro</text></symbol><symbol id="33"><text y="1.67" class="f">amalker</text><text x="7.014" y="1.67" class="g">:</text><text x="8.016" y="1.67" class="h">frontend-project-lvl2</text><text x="29.058" y="1.67" class="g">$</text><text x="31.062" y="1.67" class="g">Welcome</text><text x="39.078" y="1.67" class="g">to</text><text x="42.084" y="1.67" class="g">Difference</text><text x="53.106" y="1.67" class="g">generator</text><text x="63.126" y="1.67" class="g">proj</text></symbol><symbol id="34"><text y="1.67" class="f">amalker</text><text x="7.014" y="1.67" class="g">:</text><text x="8.016" y="1.67" class="h">frontend-project-lvl2</text><text x="29.058" y="1.67" class="g">$</text><text x="31.062" y="1.67" class="g">Welcome</text><text x="39.078" y="1.67" class="g">to</text><text x="42.084" y="1.67" class="g">Difference</text><text x="53.106" y="1.67" class="g">generator</text><text x="63.126" y="1.67" class="g">proje</text></symbol><symbol id="35"><text y="1.67" class="f">amalker</text><text x="7.014" y="1.67" class="g">:</text><text x="8.016" y="1.67" class="h">frontend-project-lvl2</text><text x="29.058" y="1.67" class="g">$</text><text x="31.062" y="1.67" class="g">Welcome</text><text x="39.078" y="1.67" class="g">to</text><text x="42.084" y="1.67" class="g">Difference</text><text x="53.106" y="1.67" class="g">generator</text><text x="63.126" y="1.67" class="g">projec</text></symbol><symbol id="36"><text y="1.67" class="f">amalker</text><text x="7.014" y="1.67" class="g">:</text><text x="8.016" y="1.67" class="h">frontend-project-lvl2</text><text x="29.058" y="1.67" class="g">$</text><text x="31.062" y="1.67" class="g">Welcome</text><text x="39.078" y="1.67" class="g">to</text><text x="42.084" y="1.67" class="g">Difference</text><text x="53.106" y="1.67" class="g">generator</text><text x="63.126" y="1.67" class="g">project</text></symbol><symbol id="37"><text y="1.67" class="f">amalker</text><text x="7.014" y="1.67" class="g">:</text><text x="8.016" y="1.67" class="h">frontend-project-lvl2</text><text x="29.058" y="1.67" class="g">$</text><text x="31.062" y="1.67" class="g">Welcome</text><text x="39.078" y="1.67" class="g">to</text><text x="42.084" y="1.67" class="g">Difference</text><text x="53.106" y="1.67" class="g">generator</text><text x="63.126" y="1.67" class="g">project!</text></symbol><symbol id="a"><path fill="transparent" d="M0 0h105v2H0z"/></symbol><symbol id="b"><path fill="#6f7683" d="M0 0h1.102v2.171H0z"/></symbol></defs><path class="a" d="M0 0h105v2.171H0z"/><g style="animation-duration:20.835502s;animation-iteration-count:infinite;animation-name:k;animation-timing-function:steps(1,end)"><svg width="9135"><svg><use xlink:href="#a"/><use xlink:href="#b" x="-.004"/></svg><svg x="105"><use xlink:href="#a"/><use xlink:href="#b" x="-.004"/></svg><svg x="210"><use xlink:href="#a"/><use xlink:href="#b" x="30.996"/><use xlink:href="#1"/></svg><svg x="315"><use xlink:href="#a"/><use xlink:href="#b" x="31.996"/><use xlink:href="#2"/></svg><svg x="420"><use xlink:href="#a"/><use xlink:href="#b" x="32.996"/><use xlink:href="#3"/></svg><svg x="525"><use xlink:href="#a"/><use xlink:href="#b" x="33.996"/><use xlink:href="#4"/></svg><svg x="630"><use xlink:href="#a"/><use xlink:href="#b" x="34.996"/><use xlink:href="#5"/></svg><svg x="735"><use xlink:href="#a"/><use xlink:href="#b" x="35.996"/><use xlink:href="#6"/></svg><svg x="840"><use xlink:href="#a"/><use xlink:href="#b" x="36.996"/><use xlink:href="#7"/></svg><svg x="945"><use xlink:href="#a"/><use xlink:href="#b" x="37.996"/><use xlink:href="#8"/></svg><svg x="1050"><use xlink:href="#a"/><use xlink:href="#b" x="38.996"/><use xlink:href="#8"/></svg><svg x="1155"><use xlink:href="#a"/><use xlink:href="#b" x="39.996"/><use xlink:href="#9"/></svg><svg x="1260"><use xlink:href="#a"/><use xlink:href="#b" x="40.996"/><use xlink:href="#10"/></svg><svg x="1365"><use xlink:href="#a"/><use xlink:href="#b" x="41.996"/><use xlink:href="#10"/></svg><svg x="1470"><use xlink:href="#a"/><use xlink:href="#b" x="42.996"/><use xlink:href="#11"/></svg><svg x="1575"><use xlink:href="#a"/><use xlink:href="#b" x="43.996"/><use xlink:href="#12"/></svg><svg x="1680"><use xlink:href="#a"/><use xlink:href="#b" x="44.996"/><use xlink:href="#13"/></svg><svg x="1785"><use xlink:href="#a"/><use xlink:href="#b" x="45.996"/><use xlink:href="#14"/></svg><svg x="1890"><use xlink:href="#a"/><use xlink:href="#b" x="46.996"/><use xlink:href="#15"/></svg><svg x="1995"><use xlink:href="#a"/><use xlink:href="#b" x="47.996"/><use xlink:href="#16"/></svg><svg x="2100"><use xlink:href="#a"/><use xlink:href="#b" x="48.996"/><use xlink:href="#17"/></svg><svg x="2205"><use xlink:href="#a"/><use xlink:href="#b" x="49.996"/><use xlink:href="#18"/></svg><svg x="2310"><use xlink:href="#a"/><use xlink:href="#b" x="50.996"/><use xlink:href="#19"/></svg><svg x="2415"><use xlink:href="#a"/><use xlink:href="#b" x="51.996"/><use xlink:href="#20"/></svg><svg x="2520"><use xlink:href="#a"/><use xlink:href="#b" x="52.996"/><use xlink:href="#20"/></svg><svg x="2625"><use xlink:href="#a"/><use xlink:href="#b" x="53.996"/><use xlink:href="#21"/></svg><svg x="2730"><use xlink:href="#a"/><use xlink:href="#b" x="54.996"/><use xlink:href="#22"/></svg><svg x="2835"><use xlink:href="#a"/><use xlink:href="#b" x="55.996"/><use xlink:href="#23"/></svg><svg x="2940"><use xlink:href="#a"/><use xlink:href="#b" x="56.996"/><use xlink:href="#24"/></svg><svg x="3045"><use xlink:href="#a"/><use xlink:href="#b" x="57.996"/><use xlink:href="#25"/></svg><svg x="3150"><use xlink:href="#a"/><use xlink:href="#b" x="58.996"/><use xlink:href="#26"/></svg><svg x="3255"><use xlink:href="#a"/><use xlink:href="#b" x="59.996"/><use xlink:href="#27"/></svg><svg x="3360"><use xlink:href="#a"/><use xlink:href="#b" x="60.996"/><use xlink:href="#28"/></svg><svg x="3465"><use xlink:href="#a"/><use xlink:href="#b" x="61.996"/><use xlink:href="#29"/></svg><svg x="3570"><use xlink:href="#a"/><use xlink:href="#b" x="62.996"/><use xlink:href="#29"/></svg><svg x="3675"><use xlink:href="#a"/><use xlink:href="#b" x="63.996"/><use xlink:href="#30"/></svg><svg x="3780"><use xlink:href="#a"/><use xlink:href="#b" x="64.996"/><use xlink:href="#31"/></svg><svg x="3885"><use xlink:href="#a"/><use xlink:href="#b" x="65.996"/><use xlink:href="#32"/></svg><svg x="3990"><use xlink:href="#a"/><use xlink:href="#b" x="66.996"/><use xlink:href="#33"/></svg><svg x="4095"><use xlink:href="#a"/><use xlink:href="#b" x="67.996"/><use xlink:href="#34"/></svg><svg x="4200"><use xlink:href="#a"/><use xlink:href="#b" x="68.996"/><use xlink:href="#35"/></svg><svg x="4305"><use xlink:href="#a"/><use xlink:href="#b" x="69.996"/><use xlink:href="#36"/></svg><svg x="4410"><use xlink:href="#a"/><use xlink:href="#b" x="70.996"/><use xlink:href="#37"/></svg><svg x="4515"><use xlink:href="#a"/><use xlink:href="#b" x="71.996"/><text y="1.67" class="f">amalker</text><text x="7.014" y="1.67" class="g">:</text><text x="8.016" y="1.67" class="h">frontend-project-lvl2</text><text x="29.058" y="1.67" class="g">$</text><text x="31.062" y="1.67" class="g">Welcome</text><text x="39.078" y="1.67" class="g">to</text><text x="42.084" y="1.67" class="g">Difference</text><text x="53.106" y="1.67" class="g">generator</text><text x="63.126" y="1.67" class="g">project!!</text></svg><svg x="4620"><use xlink:href="#a"/><use xlink:href="#b" x="70.996"/><use xlink:href="#37"/></svg><svg x="4725"><use xlink:href="#a"/><use xlink:href="#b" x="69.996"/><use xlink:href="#36"/></svg><svg x="4830"><use xlink:href="#a"/><use xlink:href="#b" x="68.996"/><use xlink:href="#35"/></svg><svg x="4935"><use xlink:href="#a"/><use xlink:href="#b" x="67.996"/><use xlink:href="#34"/></svg><svg x="5040"><use xlink:href="#a"/><use xlink:href="#b" x="66.996"/><use xlink:href="#33"/></svg><svg x="5145"><use xlink:href="#a"/><use xlink:href="#b" x="65.996"/><use xlink:href="#32"/></svg><svg x="5250"><use xlink:href="#a"/><use xlink:href="#b" x="64.996"/><use xlink:href="#31"/></svg><svg x="5355"><use xlink:href="#a"/><use xlink:href="#b" x="63.996"/><use xlink:href="#30"/></svg><svg x="5460"><use xlink:href="#a"/><use xlink:href="#b" x="62.996"/><use xlink:href="#29"/></svg><svg x="5565"><use xlink:href="#a"/><use xlink:href="#b" x="61.996"/><use xlink:href="#29"/></svg><svg x="5670"><use xlink:href="#a"/><use xlink:href="#b" x="60.996"/><use xlink:href="#28"/></svg><svg x="5775"><use xlink:href="#a"/><use xlink:href="#b" x="59.996"/><use xlink:href="#27"/></svg><svg x="5880"><use xlink:href="#a"/><use xlink:href="#b" x="58.996"/><use xlink:href="#26"/></svg><svg x="5985"><use xlink:href="#a"/><use xlink:href="#b" x="57.996"/><use xlink:href="#25"/></svg><svg x="6090"><use xlink:href="#a"/><use xlink:href="#b" x="56.996"/><use xlink:href="#24"/></svg><svg x="6195"><use xlink:href="#a"/><use xlink:href="#b" x="55.996"/><use xlink:href="#23"/></svg><svg x="6300"><use xlink:href="#a"/><use xlink:href="#b" x="54.996"/><use xlink:href="#22"/></svg><svg x="6405"><use xlink:href="#a"/><use xlink:href="#b" x="53.996"/><use xlink:href="#21"/></svg><svg x="6510"><use xlink:href="#a"/><use xlink:href="#b" x="52.996"/><use xlink:href="#20"/></svg><svg x="6615"><use xlink:href="#a"/><use xlink:href="#b" x="51.996"/><use xlink:href="#20"/></svg><svg x="6720"><use xlink:href="#a"/><use xlink:href="#b" x="50.996"/><use xlink:href="#19"/></svg><svg x="6825"><use xlink:href="#a"/><use xlink:href="#b" x="49.996"/><use xlink:href="#18"/></svg><svg x="6930"><use xlink:href="#a"/><use xlink:href="#b" x="48.996"/><use xlink:href="#17"/></svg><svg x="7035"><use xlink:href="#a"/><use xlink:href="#b" x="47.996"/><use xlink:href="#16"/></svg><svg x="7140"><use xlink:href="#a"/><use xlink:href="#b" x="46.996"/><use xlink:href="#15"/></svg><svg x="7245"><use xlink:href="#a"/><use xlink:href="#b" x="45.996"/><use xlink:href="#14"/></svg><svg x="7350"><use xlink:href="#a"/><use xlink:href="#b" x="44.996"/><use xlink:href="#13"/></svg><svg x="7455"><use xlink:href="#a"/><use xlink:href="#b" x="43.996"/><use xlink:href="#12"/></svg><svg x="7560"><use xlink:href="#a"/><use xlink:href="#b" x="42.996"/><use xlink:href="#11"/></svg><svg x="7665"><use xlink:href="#a"/><use xlink:href="#b" x="41.996"/><use xlink:href="#10"/></svg><svg x="7770"><use xlink:href="#a"/><use xlink:href="#b" x="40.996"/><use xlink:href="#10"/></svg><svg x="7875"><use xlink:href="#a"/><use xlink:href="#b" x="39.996"/><use xlink:href="#9"/></svg><svg x="7980"><use xlink:href="#a"/><use xlink:href="#b" x="38.996"/><use xlink:href="#8"/></svg><svg x="8085"><use xlink:href="#a"/><use xlink:href="#b" x="37.996"/><use xlink:href="#8"/></svg><svg x="8190"><use xlink:href="#a"/><use xlink:href="#b" x="36.996"/><use xlink:href="#7"/></svg><svg x="8295"><use xlink:href="#a"/><use xlink:href="#b" x="35.996"/><use xlink:href="#6"/></svg><svg x="8400"><use xlink:href="#a"/><use xlink:href="#b" x="34.996"/><use xlink:href="#5"/></svg><svg x="8505"><use xlink:href="#a"/><use xlink:href="#b" x="33.996"/><use xlink:href="#4"/></svg><svg x="8610"><use xlink:href="#a"/><use xlink:href="#b" x="32.996"/><use xlink:href="#3"/></svg><svg x="8715"><use xlink:href="#a"/><use xlink:href="#b" x="31.996"/><use xlink:href="#2"/></svg><svg x="8820"><use xlink:href="#a"/><use xlink:href="#b" x="30.996"/><use xlink:href="#1"/></svg><svg x="8925"><use xlink:href="#a"/><use xlink:href="#b" x="30.996"/><use xlink:href="#1"/></svg><svg x="9030"><use xlink:href="#a"/><use xlink:href="#b" x="-.004" y="2.146"/><text y="1.67" class="f">amalker</text><text x="7.014" y="1.67" class="g">:</text><text x="8.016" y="1.67" class="h">frontend-project-lvl2</text><text x="29.058" y="1.67" class="g">$</text><text x="31.062" y="1.67" class="g">logout</text></svg></svg></g></g></svg></svg>